{
	"asset":{
		"generator":"Khronos glTF Blender I/O v3.5.30",
		"version":"2.0"
	},
	"extensionsUsed":[
		"KHR_materials_transmission",
		"KHR_materials_ior"
	],
	"scene":0,
	"scenes":[
		{
			"name":"Scene",
			"nodes":[
				0,
				1
			]
		}
	],
	"nodes":[
		{
			"name":"Empty"
		},
		{
			"mesh":0,
			"name":"Plane"
		}
	],
	"materials":[
		{
			"doubleSided":true,
			"extensions":{
				"KHR_materials_transmission":{
					"transmissionFactor":0.9700000286102295
				},
				"KHR_materials_ior":{
					"ior":1.2300000190734863
				}
			},
			"name":"Material.001",
			"pbrMetallicRoughness":{
				"baseColorFactor":[
					0,
					1,
					0.886085569858551,
					1
				],
				"metallicFactor":0,
				"roughnessFactor":0.30000001192092896
			}
		}
	],
	"meshes":[
		{
			"name":"Plane",
			"primitives":[
				{
					"attributes":{
						"POSITION":0,
						"TEXCOORD_0":1,
						"NORMAL":2
					},
					"indices":3,
					"material":0
				}
			]
		}
	],
	"accessors":[
		{
			"bufferView":0,
			"componentType":5126,
			"count":1799,
			"max":[
				-0.3480716943740845,
				0.07143185287714005,
				1.8934026956558228
			],
			"min":[
				-0.9279724359512329,
				-0.007143169175833464,
				0.49772411584854126
			],
			"type":"VEC3"
		},
		{
			"bufferView":1,
			"componentType":5126,
			"count":1799,
			"type":"VEC2"
		},
		{
			"bufferView":2,
			"componentType":5126,
			"count":1799,
			"type":"VEC3"
		},
		{
			"bufferView":3,
			"componentType":5123,
			"count":3585,
			"type":"SCALAR"
		}
	],
	"bufferViews":[
		{
			"buffer":0,
			"byteLength":21588,
			"byteOffset":0,
			"target":34962
		},
		{
			"buffer":0,
			"byteLength":14392,
			"byteOffset":21588,
			"target":34962
		},
		{
			"buffer":0,
			"byteLength":21588,
			"byteOffset":35980,
			"target":34962
		},
		{
			"buffer":0,
			"byteLength":7170,
			"byteOffset":57568,
			"target":34963
		}
	],
	"buffers":[
		{
			"byteLength":64740,
			"uri":"data:application/octet-stream;base64,"
		}
	]
}
