{
	"asset":{
		"generator":"Khronos glTF Blender I/O v3.5.30",
		"version":"2.0"
	},
	"extensionsUsed":[
		"KHR_materials_transmission",
		"KHR_materials_ior"
	],
	"scene":0,
	"scenes":[
		{
			"name":"Scene",
			"nodes":[
				0,
				1,
				2
			]
		}
	],
	"nodes":[
		{
			"name":"Empty"
		},
		{
			"mesh":0,
			"name":"Plane",
			"translation":[
				0,
				-0.0020000000949949026,
				0
			]
		},
		{
			"mesh":1,
			"name":"Plane.001",
			"translation":[
				-1.3978030681610107,
				0.07625014334917068,
				-0.028978897258639336
			]
		}
	],
	"materials":[
		{
			"doubleSided":true,
			"extensions":{
				"KHR_materials_transmission":{
					"transmissionFactor":0.9700000286102295
				},
				"KHR_materials_ior":{
					"ior":1.2300000190734863
				}
			},
			"name":"Material.001",
			"pbrMetallicRoughness":{
				"baseColorFactor":[
					0,
					1,
					0.886085569858551,
					1
				],
				"metallicFactor":0,
				"roughnessFactor":0.30000001192092896
			}
		}
	],
	"meshes":[
		{
			"name":"Plane",
			"primitives":[
				{
					"attributes":{
						"POSITION":0,
						"TEXCOORD_0":1,
						"NORMAL":2
					},
					"indices":3,
					"material":0
				}
			]
		},
		{
			"name":"Plane.001",
			"primitives":[
				{
					"attributes":{
						"POSITION":4,
						"TEXCOORD_0":5,
						"NORMAL":6
					},
					"indices":7,
					"material":0
				}
			]
		}
	],
	"accessors":[
		{
			"bufferView":0,
			"componentType":5126,
			"count":1899,
			"max":[
				-0.3480716943740845,
				0.13453446328639984,
				1.8934026956558228
			],
			"min":[
				-0.9279724359512329,
				-0.007143169175833464,
				0.49772411584854126
			],
			"type":"VEC3"
		},
		{
			"bufferView":1,
			"componentType":5126,
			"count":1899,
			"type":"VEC2"
		},
		{
			"bufferView":2,
			"componentType":5126,
			"count":1899,
			"type":"VEC3"
		},
		{
			"bufferView":3,
			"componentType":5123,
			"count":3753,
			"type":"SCALAR"
		},
		{
			"bufferView":4,
			"componentType":5126,
			"count":1143,
			"max":[
				0.8240990042686462,
				0.05889321491122246,
				1.923457145690918
			],
			"min":[
				0.47041192650794983,
				-0.006999989505857229,
				0.5353518724441528
			],
			"type":"VEC3"
		},
		{
			"bufferView":5,
			"componentType":5126,
			"count":1143,
			"type":"VEC2"
		},
		{
			"bufferView":6,
			"componentType":5126,
			"count":1143,
			"type":"VEC3"
		},
		{
			"bufferView":7,
			"componentType":5123,
			"count":2211,
			"type":"SCALAR"
		}
	],
	"bufferViews":[
		{
			"buffer":0,
			"byteLength":22788,
			"byteOffset":0,
			"target":34962
		},
		{
			"buffer":0,
			"byteLength":15192,
			"byteOffset":22788,
			"target":34962
		},
		{
			"buffer":0,
			"byteLength":22788,
			"byteOffset":37980,
			"target":34962
		},
		{
			"buffer":0,
			"byteLength":7506,
			"byteOffset":60768,
			"target":34963
		},
		{
			"buffer":0,
			"byteLength":13716,
			"byteOffset":68276,
			"target":34962
		},
		{
			"buffer":0,
			"byteLength":9144,
			"byteOffset":81992,
			"target":34962
		},
		{
			"buffer":0,
			"byteLength":13716,
			"byteOffset":91136,
			"target":34962
		},
		{
			"buffer":0,
			"byteLength":4422,
			"byteOffset":104852,
			"target":34963
		}
	],
	"buffers":[
		{
			"byteLength":109276,
			"uri":"data:application/octet-stream;base64,"
		}
	]
}
